# xmcd
#
# Track frame offsets:
#	150
#	12945
#	35243
#	49516
#	59161
#	71949
#	87474
#	102024
#	121547
#	136105
#
# Disc length: 2002 seconds
#
# Revision: 0
# Processed by: cddbd v1.5.2PL0 Copyright (c) Steve Scherf et al.
# Submitted via: audiograbber 1.83.01
#
DISCID=8807d00a
DTITLE=Meline  - Heilige Nacht 
DYEAR=2014
DGENRE=Christian Rock
TTITLE0=Leise rieselt der Schnee
TTITLE1=Heilige Nacht, in der der Herr 
TTITLE2=Kommet, ihr Hirten
TTITLE3=Mit den Hirten
TTITLE4=Freu euch, freut euch, Menschen
TTITLE5=Maria, ahntest du
TTITLE6=Fröhliche Weihnacht überall
TTITLE7=O Bethlehem, du kleine Stadt
TTITLE8=Herbei, o ihr Gläubigen
TTITLE9=Mein Jesus kam für mich
EXTD=
EXTT0=
EXTT1=
EXTT2=
EXTT3=
EXTT4=
EXTT5=
EXTT6=
EXTT7=
EXTT8=
EXTT9=
PLAYORDER=
